# xmcd CD database file
#
# Track frame offsets:
#	182
#	13496
#	28785
#	43862
#	56135
#	67620
#	81139
#	94852
#	108295
#	121726
#	135410
#	149807
#	163815
#	177026
#	189206
#	202019
#	214676
#	229528
#	244177
#	257643
#
# Disc length: 3619 seconds
#
# Revision: 0
# Processed by: cddbd v1.5.2PL0 Copyright (c) Steve Scherf et al.
# Submitted via: CDex 2.14
#
DISCID=190e2114
DTITLE=Lil Green - 1940-1941
DYEAR=2003
DGENRE=Blues
TTITLE0=Cherry Tree Blues
TTITLE1=Romance In The Dark
TTITLE2=Just Rockin'
TTITLE3=What Have I Done
TTITLE4=Give Your Mama One Smile
TTITLE5=My Mellow Man
TTITLE6=Knockin' Myself Out
TTITLE7=I Won't Sell My Love
TTITLE8=Why Don't You Do Right?
TTITLE9=Love Me
TTITLE10=I'm Going To Copyright Your Kisses
TTITLE11=What's The Matter With Love?
TTITLE12=Country Boy Blues
TTITLE13=How Can I Go On
TTITLE14=Hello Babe
TTITLE15=If I Didn't Love You
TTITLE16=Let's Be Friends
TTITLE17=Because I Love My Daddy So
TTITLE18=I'm Going To Start A Racket
TTITLE19=You're Just Full Of Jive
EXTD=YEAR: 2003
EXTT0=
EXTT1=
EXTT2=
EXTT3=
EXTT4=
EXTT5=
EXTT6=
EXTT7=
EXTT8=
EXTT9=
EXTT10=
EXTT11=
EXTT12=
EXTT13=
EXTT14=
EXTT15=
EXTT16=
EXTT17=
EXTT18=
EXTT19=
PLAYORDER=
